<svg 
  xmlns="http://www.w3.org/2000/svg"
  xmlns:xlink="http://www.w3.org/1999/xlink" 
  version="1.1" x="0px" y="0px" 
  viewBox="0 0 100 125" style="enable-background:new 0 0 100 100;" 
  xml:space="preserve">
  <g>
    <path 
    d="M39.6,58.5c0,6,4.8,10.8,10.8,10.8c6,0,10.8-4.8,10.8-10.8c0-6-4.8-10.8-10.8-10.8   
        C44.4,47.6,39.6,52.5,39.6,58.5z M51,71.4c-10.9,0-20.2,7.9-24.1,19.1h48.2C71.2,79.3,61.9,71.4,51,71.4z M50.5,9.5 
        C27.3,9.5,8.4,28.4,8.4,51.6c0,11.6,4.7,22.1,12.3,29.8l3.1-3.1C17,71.4,12.8,62,12.8,51.6c0-20.8,16.9-37.7,37.7-37.7 
        s37.7,16.9,37.7,37.7c0,10.4-4.2,19.8-11.1,26.7l3.1,3.1c7.6-7.6,12.3-18.2,12.3-29.8C92.6,28.4,73.7,9.5,50.5,9.5z M72.6,73.7 
        c5.7-5.7,9.2-13.5,9.2-22.1c0-17.3-14-31.3-31.3-31.3s-31.3,14-31.3,31.3c0,8.6,3.5,16.5,9.2,22.1l3.1-3.1 
        c-4.9-4.9-7.9-11.6-7.9-19c0-14.8,12.1-26.9,26.9-26.9s26.9,12.1,26.9,26.9c0,7.4-3,14.1-7.9,19L72.6,73.7z">
    </path>
  </g>
</svg>